<svg viewBox="0 0 48 48" fill="none" xmlns="http://www.w3.org/2000/svg"><rect width="48" height="48" rx="8" fill="#3559C7"/><path d="M33.722 39.495a5.076 5.076 0 0 1-3.61-1.486l-.026-.026c-.026-.013-.039-.039-.065-.052L16.428 24.195l2.216-2.215L32.21 35.168l.026.026c.027.014.04.04.066.066.378.378.886.6 1.42.6 1.108 0 2.15-.913 2.15-2.047V14.695c0-1.134-1.03-2.046-2.15-2.046a2.03 2.03 0 0 0-1.394.573l-.04.04-6.411 5.89-2.216-2.216 6.347-6.346c.013-.013.026-.04.052-.052A5.216 5.216 0 0 1 33.722 9c2.815 0 5.239 2.28 5.278 5.095v20.317c-.052 2.815-2.476 5.083-5.278 5.083z" fill="#fff"/><path d="M14.148 9c1.355 0 2.645.521 3.61 1.486l.026.026c.026.013.039.039.065.052l13.723 13.605-2.216 2.216-13.697-13.058-.026-.026c-.026-.014-.039-.04-.065-.066a2.014 2.014 0 0 0-1.42-.6c-1.108 0-2.02.913-2.02 2.047V33.8c0 1.134.899 2.046 2.02 2.046a2.03 2.03 0 0 0 1.394-.573l.04-.04 6.41-5.89 2.216 2.215-6.346 6.347c-.013.013-.026.04-.052.052a5.217 5.217 0 0 1-3.662 1.538c-2.815 0-5.109-2.28-5.148-5.095V14.083C9.052 11.268 11.346 9 14.148 9z" fill="#fff"/></svg>